<svg width="874" height="899" viewBox="0 0 874 899" fill="none" xmlns="http://www.w3.org/2000/svg">
<path d="M589.678 830.337C589.678 830.337 559.827 728.988 595.28 654.428C610.163 623.125 615.1 587.975 608.227 553.998C604.941 537.866 600.181 522.07 594.009 506.808" stroke="#535461" stroke-width="2" stroke-miterlimit="10"/>
<path d="M616.019 459.691C616.019 472.117 593.525 508.091 593.525 508.091C593.525 508.091 571.031 472.069 571.031 459.691C570.961 456.694 571.492 453.713 572.591 450.924C573.689 448.134 575.335 445.593 577.43 443.449C579.525 441.305 582.028 439.601 584.791 438.438C587.554 437.274 590.521 436.675 593.519 436.675C596.517 436.675 599.484 437.274 602.247 438.438C605.01 439.601 607.513 441.305 609.608 443.449C611.703 445.593 613.348 448.134 614.447 450.924C615.546 453.713 616.077 456.694 616.007 459.691H616.019Z" fill="#2896F3"/>
<path d="M653.239 528.491C646.487 538.921 608.033 556.926 608.033 556.926C608.033 556.926 608.735 514.467 615.487 504.037C618.799 499.193 623.872 495.835 629.625 494.679C635.378 493.523 641.355 494.661 646.281 497.85C651.206 501.039 654.691 506.027 655.991 511.749C657.291 517.471 656.303 523.475 653.239 528.479V528.491Z" fill="#2896F3"/>
<path d="M651.605 646.067C640.51 651.657 598.232 647.797 598.232 647.797C598.232 647.797 620.266 611.497 631.362 605.907C634.006 604.507 636.902 603.648 639.882 603.381C642.862 603.114 645.865 603.444 648.715 604.352C651.566 605.259 654.207 606.727 656.484 608.668C658.76 610.608 660.627 612.984 661.974 615.655C663.321 618.326 664.122 621.239 664.33 624.224C664.537 627.208 664.147 630.204 663.183 633.036C662.219 635.868 660.699 638.479 658.713 640.717C656.727 642.954 654.315 644.773 651.617 646.067H651.605Z" fill="#2896F3"/>
<path d="M630.346 734.747C620.363 742.128 578.025 745.468 578.025 745.468C578.025 745.468 593.61 705.974 603.592 698.581C605.965 696.796 608.668 695.499 611.544 694.764C614.421 694.029 617.415 693.87 620.353 694.298C623.291 694.725 626.115 695.73 628.663 697.255C631.211 698.779 633.432 700.793 635.198 703.18C636.963 705.567 638.239 708.28 638.951 711.163C639.663 714.045 639.797 717.04 639.346 719.974C638.895 722.909 637.868 725.725 636.323 728.261C634.778 730.796 632.747 733.001 630.346 734.747V734.747Z" fill="#2896F3"/>
<path d="M560.806 559.334C569.712 567.985 611.179 576.988 611.179 576.988C611.179 576.988 601.015 535.763 592.109 527.1C587.8 523.109 582.102 520.962 576.231 521.117C570.36 521.272 564.783 523.717 560.691 527.929C556.598 532.141 554.316 537.787 554.331 543.66C554.345 549.533 556.657 555.167 560.77 559.358L560.806 559.334Z" fill="#2896F3"/>
<path d="M537.26 663.358C548.356 668.948 590.633 665.088 590.633 665.088C590.633 665.088 568.599 628.788 557.503 623.198C554.86 621.797 551.963 620.939 548.983 620.672C546.004 620.405 543.001 620.735 540.15 621.642C537.299 622.55 534.658 624.017 532.382 625.958C530.105 627.899 528.239 630.275 526.891 632.946C525.544 635.617 524.743 638.53 524.536 641.515C524.328 644.499 524.718 647.495 525.682 650.327C526.647 653.159 528.166 655.77 530.152 658.007C532.138 660.245 534.55 662.064 537.248 663.358H537.26Z" fill="#2896F3"/>
<path d="M528.245 767.611C538.228 774.992 580.566 778.332 580.566 778.332C580.566 778.332 564.981 738.837 554.998 731.444C552.626 729.659 549.923 728.362 547.046 727.627C544.17 726.892 541.176 726.734 538.238 727.161C535.3 727.589 532.475 728.594 529.928 730.118C527.38 731.643 525.159 733.657 523.393 736.044C521.628 738.431 520.352 741.144 519.64 744.026C518.928 746.908 518.793 749.903 519.244 752.838C519.696 755.772 520.723 758.589 522.268 761.124C523.813 763.66 525.844 765.864 528.245 767.611V767.611Z" fill="#2896F3"/>
<path opacity="0.25" d="M616.019 459.691C616.019 472.117 593.525 508.091 593.525 508.091C593.525 508.091 571.031 472.069 571.031 459.691C570.961 456.694 571.492 453.713 572.591 450.924C573.689 448.134 575.335 445.593 577.43 443.449C579.525 441.305 582.028 439.601 584.791 438.438C587.554 437.274 590.521 436.675 593.519 436.675C596.517 436.675 599.484 437.274 602.247 438.438C605.01 439.601 607.513 441.305 609.608 443.449C611.703 445.593 613.348 448.134 614.447 450.924C615.546 453.713 616.077 456.694 616.007 459.691H616.019Z" fill="black"/>
<path opacity="0.25" d="M653.239 528.491C646.487 538.921 608.033 556.926 608.033 556.926C608.033 556.926 608.735 514.467 615.487 504.037C618.799 499.193 623.872 495.835 629.625 494.679C635.378 493.523 641.355 494.661 646.281 497.85C651.206 501.039 654.691 506.027 655.991 511.749C657.291 517.471 656.303 523.475 653.239 528.479V528.491Z" fill="black"/>
<path opacity="0.25" d="M651.605 646.067C640.51 651.657 598.232 647.797 598.232 647.797C598.232 647.797 620.266 611.497 631.362 605.907C634.006 604.507 636.902 603.648 639.882 603.381C642.862 603.114 645.865 603.444 648.715 604.352C651.566 605.259 654.207 606.727 656.484 608.668C658.76 610.608 660.627 612.984 661.974 615.655C663.321 618.326 664.122 621.239 664.33 624.224C664.537 627.208 664.147 630.204 663.183 633.036C662.219 635.868 660.699 638.479 658.713 640.717C656.727 642.954 654.315 644.773 651.617 646.067H651.605Z" fill="black"/>
<path opacity="0.25" d="M630.346 734.747C620.363 742.128 578.025 745.468 578.025 745.468C578.025 745.468 593.61 705.974 603.592 698.581C605.965 696.796 608.668 695.499 611.544 694.764C614.421 694.029 617.415 693.87 620.353 694.298C623.291 694.725 626.115 695.73 628.663 697.255C631.211 698.779 633.432 700.793 635.198 703.18C636.963 705.567 638.239 708.28 638.951 711.163C639.663 714.045 639.797 717.04 639.346 719.974C638.895 722.909 637.868 725.725 636.323 728.261C634.778 730.796 632.747 733.001 630.346 734.747V734.747Z" fill="black"/>
<path opacity="0.25" d="M560.806 559.334C569.712 567.985 611.179 576.988 611.179 576.988C611.179 576.988 601.015 535.763 592.109 527.1C587.8 523.109 582.102 520.962 576.231 521.117C570.36 521.272 564.783 523.717 560.691 527.929C556.598 532.141 554.316 537.787 554.331 543.66C554.345 549.533 556.657 555.167 560.77 559.358L560.806 559.334Z" fill="black"/>
<path opacity="0.25" d="M537.26 663.358C548.356 668.948 590.633 665.088 590.633 665.088C590.633 665.088 568.599 628.788 557.503 623.198C554.86 621.797 551.963 620.939 548.983 620.672C546.004 620.405 543.001 620.735 540.15 621.642C537.299 622.55 534.658 624.017 532.382 625.958C530.105 627.899 528.239 630.275 526.891 632.946C525.544 635.617 524.743 638.53 524.536 641.515C524.328 644.499 524.718 647.495 525.682 650.327C526.647 653.159 528.166 655.77 530.152 658.007C532.138 660.245 534.55 662.064 537.248 663.358H537.26Z" fill="black"/>
<path opacity="0.25" d="M528.245 767.611C538.228 774.992 580.566 778.332 580.566 778.332C580.566 778.332 564.981 738.837 554.998 731.444C552.626 729.659 549.923 728.362 547.046 727.627C544.17 726.892 541.176 726.734 538.238 727.161C535.3 727.589 532.475 728.594 529.928 730.118C527.38 731.643 525.159 733.657 523.393 736.044C521.628 738.431 520.352 741.144 519.64 744.026C518.928 746.908 518.793 749.903 519.244 752.838C519.696 755.772 520.723 758.589 522.268 761.124C523.813 763.66 525.844 765.864 528.245 767.611V767.611Z" fill="black"/>
<path d="M70.6449 865.875C70.6449 865.875 40.794 764.538 76.2472 689.929C91.1303 658.626 96.0671 623.476 89.1943 589.499C85.9079 573.368 81.1487 557.571 74.9767 542.309" stroke="#535461" stroke-width="2" stroke-miterlimit="10"/>
<path d="M97.0351 495.228C97.0351 507.655 74.5411 543.628 74.5411 543.628C74.5411 543.628 52.0471 507.606 52.0471 495.228C51.9775 492.231 52.5078 489.25 53.6067 486.461C54.7056 483.672 56.3509 481.131 58.446 478.986C60.5411 476.842 63.0436 475.138 65.8066 473.975C68.5695 472.812 71.5372 472.213 74.535 472.213C77.5329 472.213 80.5005 472.812 83.2635 473.975C86.0265 475.138 88.529 476.842 90.6241 478.986C92.7192 481.131 94.3645 483.672 95.4634 486.461C96.5623 489.25 97.0925 492.231 97.023 495.228H97.0351Z" fill="#2896F3"/>
<path d="M134.206 564.029C127.454 574.459 89.0005 592.464 89.0005 592.464C89.0005 592.464 89.7023 550.005 96.4541 539.575C98.0215 537.015 100.085 534.795 102.524 533.045C104.963 531.295 107.727 530.051 110.654 529.386C113.581 528.721 116.611 528.649 119.567 529.173C122.522 529.698 125.343 530.808 127.862 532.439C130.382 534.071 132.549 536.19 134.237 538.671C135.925 541.153 137.1 543.948 137.691 546.891C138.282 549.833 138.278 552.865 137.68 555.806C137.081 558.747 135.9 561.539 134.206 564.017V564.029Z" fill="#2896F3"/>
<path d="M132.585 681.604C121.489 687.194 79.2114 683.335 79.2114 683.335C79.2114 683.335 101.246 647.035 112.341 641.444C117.651 638.898 123.746 638.535 129.32 640.433C134.894 642.331 139.501 646.339 142.153 651.596C144.805 656.854 145.289 662.941 143.503 668.552C141.716 674.162 137.8 678.848 132.597 681.604H132.585Z" fill="#2896F3"/>
<path d="M111.325 770.285C101.343 777.666 59.0044 781.006 59.0044 781.006C59.0044 781.006 74.5893 741.511 84.5719 734.118C89.3711 730.627 95.3555 729.174 101.221 730.076C107.087 730.977 112.359 734.16 115.888 738.932C119.417 743.703 120.918 749.675 120.064 755.548C119.209 761.421 116.068 766.718 111.325 770.285V770.285Z" fill="#2896F3"/>
<path d="M41.7741 594.872C50.6798 603.523 92.1951 612.489 92.1951 612.489C92.1951 612.489 82.0311 571.265 73.1254 562.601C68.8166 558.61 63.118 556.463 57.2472 556.618C51.3764 556.773 45.799 559.218 41.7067 563.43C37.6145 567.643 35.3319 573.288 35.3468 579.161C35.3616 585.034 37.6727 590.668 41.7862 594.86L41.7741 594.872Z" fill="#2896F3"/>
<path d="M18.2757 698.895C29.3715 704.485 71.6491 700.625 71.6491 700.625C71.6491 700.625 49.6149 664.325 38.5191 658.735C33.2147 656.228 27.1404 655.892 21.5919 657.799C16.0433 659.707 11.4597 663.707 8.81872 668.946C6.17774 674.185 5.6884 680.249 7.45514 685.844C9.22187 691.439 13.1048 696.123 18.2757 698.895V698.895Z" fill="#2896F3"/>
<path d="M9.2128 803.149C19.1954 810.53 61.5335 813.869 61.5335 813.869C61.5335 813.869 45.9486 774.375 35.966 766.958C31.1668 763.467 25.1824 762.014 19.3166 762.915C13.4508 763.817 8.17903 767 4.64972 771.771C1.12042 776.542 -0.38036 782.515 0.474334 788.387C1.32903 794.26 4.46996 799.557 9.2128 803.124V803.149Z" fill="#2896F3"/>
<path opacity="0.25" d="M97.0351 495.228C97.0351 507.655 74.5411 543.628 74.5411 543.628C74.5411 543.628 52.0471 507.606 52.0471 495.228C51.9775 492.231 52.5078 489.25 53.6067 486.461C54.7056 483.672 56.3509 481.131 58.446 478.986C60.5411 476.842 63.0436 475.138 65.8066 473.975C68.5695 472.812 71.5372 472.213 74.535 472.213C77.5329 472.213 80.5005 472.812 83.2635 473.975C86.0265 475.138 88.529 476.842 90.6241 478.986C92.7192 481.131 94.3645 483.672 95.4634 486.461C96.5623 489.25 97.0925 492.231 97.023 495.228H97.0351Z" fill="black"/>
<path opacity="0.25" d="M134.206 564.029C127.454 574.459 89.0005 592.464 89.0005 592.464C89.0005 592.464 89.7023 550.005 96.4541 539.575C98.0215 537.015 100.085 534.795 102.524 533.045C104.963 531.295 107.727 530.051 110.654 529.386C113.581 528.721 116.611 528.649 119.567 529.173C122.522 529.698 125.343 530.808 127.862 532.439C130.382 534.071 132.549 536.19 134.237 538.671C135.925 541.153 137.1 543.948 137.691 546.891C138.282 549.833 138.278 552.865 137.68 555.806C137.081 558.747 135.9 561.539 134.206 564.017V564.029Z" fill="black"/>
<path opacity="0.25" d="M132.585 681.604C121.489 687.194 79.2114 683.335 79.2114 683.335C79.2114 683.335 101.246 647.035 112.341 641.444C117.651 638.898 123.746 638.535 129.32 640.433C134.894 642.331 139.501 646.339 142.153 651.596C144.805 656.854 145.289 662.941 143.503 668.552C141.716 674.162 137.8 678.848 132.597 681.604H132.585Z" fill="black"/>
<path opacity="0.25" d="M111.325 770.285C101.343 777.666 59.0044 781.006 59.0044 781.006C59.0044 781.006 74.5893 741.511 84.5719 734.118C89.3711 730.627 95.3555 729.174 101.221 730.076C107.087 730.977 112.359 734.16 115.888 738.932C119.417 743.703 120.918 749.675 120.064 755.548C119.209 761.421 116.068 766.718 111.325 770.285V770.285Z" fill="black"/>
<path opacity="0.25" d="M41.7741 594.872C50.6798 603.523 92.1951 612.489 92.1951 612.489C92.1951 612.489 82.0311 571.265 73.1254 562.601C68.8166 558.61 63.118 556.463 57.2472 556.618C51.3764 556.773 45.799 559.218 41.7067 563.43C37.6145 567.643 35.3319 573.288 35.3468 579.161C35.3616 585.034 37.6727 590.668 41.7862 594.86L41.7741 594.872Z" fill="black"/>
<path opacity="0.25" d="M18.2757 698.895C29.3715 704.485 71.6491 700.625 71.6491 700.625C71.6491 700.625 49.6149 664.325 38.5191 658.735C33.2147 656.228 27.1404 655.892 21.5919 657.799C16.0433 659.707 11.4597 663.707 8.81872 668.946C6.17774 674.185 5.6884 680.249 7.45514 685.844C9.22187 691.439 13.1048 696.123 18.2757 698.895V698.895Z" fill="black"/>
<path opacity="0.25" d="M9.2128 803.149C19.1954 810.53 61.5335 813.869 61.5335 813.869C61.5335 813.869 45.9486 774.375 35.966 766.958C31.1668 763.467 25.1824 762.014 19.3166 762.915C13.4508 763.817 8.17903 767 4.64972 771.771C1.12042 776.542 -0.38036 782.515 0.474334 788.387C1.32903 794.26 4.46996 799.557 9.2128 803.124V803.149Z" fill="black"/>
<path d="M435.655 799.458C435.655 799.458 419.49 744.585 438.68 704.207C446.836 687.321 449.295 668.244 445.686 649.842C443.906 641.118 441.33 632.576 437.991 624.323" stroke="#535461" stroke-width="2" stroke-miterlimit="10"/>
<path d="M449.934 598.768C449.934 605.495 437.761 624.988 437.761 624.988C437.761 624.988 425.588 605.52 425.588 598.768C425.588 597.169 425.903 595.585 426.515 594.107C427.127 592.63 428.025 591.287 429.155 590.156C430.286 589.025 431.629 588.128 433.107 587.516C434.584 586.904 436.168 586.589 437.767 586.589C439.366 586.589 440.95 586.904 442.428 587.516C443.905 588.128 445.248 589.025 446.379 590.156C447.51 591.287 448.407 592.63 449.019 594.107C449.631 595.585 449.946 597.169 449.946 598.768H449.934Z" fill="#2896F3"/>
<path d="M470.068 636.048C466.438 641.686 445.59 651.439 445.59 651.439C445.59 651.439 445.965 628.449 449.619 622.81C451.375 620.1 454.135 618.199 457.292 617.523C460.45 616.848 463.746 617.455 466.456 619.211C469.167 620.966 471.068 623.726 471.743 626.884C472.418 630.041 471.812 633.338 470.056 636.048H470.068Z" fill="#2896F3"/>
<path d="M469.185 699.694C463.135 702.719 440.29 700.625 440.29 700.625C440.29 700.625 452.221 680.975 458.222 677.95C461.111 676.496 464.458 676.249 467.528 677.264C470.598 678.278 473.14 680.471 474.594 683.359C476.047 686.247 476.294 689.594 475.28 692.665C474.266 695.735 472.073 698.276 469.185 699.73V699.694Z" fill="#2896F3"/>
<path d="M457.678 747.706C452.269 751.699 429.352 753.514 429.352 753.514C429.352 753.514 437.822 732.134 443.194 728.104C445.79 726.179 449.045 725.364 452.242 725.838C455.44 726.312 458.318 728.037 460.243 730.633C462.169 733.23 462.984 736.484 462.51 739.682C462.035 742.879 460.31 745.757 457.714 747.682L457.678 747.706Z" fill="#2896F3"/>
<path d="M419.998 652.746C424.838 657.428 447.296 662.281 447.296 662.281C447.296 662.281 441.778 639.908 436.938 635.273C434.602 633.129 431.522 631.981 428.352 632.073C425.183 632.165 422.174 633.491 419.967 635.767C417.76 638.044 416.528 641.092 416.534 644.263C416.54 647.434 417.782 650.477 419.998 652.746V652.746Z" fill="#2896F3"/>
<path d="M407.281 709.059C413.331 712.084 436.176 709.991 436.176 709.991C436.176 709.991 424.245 690.34 418.243 687.315C415.355 685.862 412.008 685.615 408.938 686.629C405.867 687.644 403.326 689.836 401.872 692.724C400.418 695.612 400.171 698.96 401.186 702.03C402.2 705.1 404.393 707.642 407.281 709.095V709.059Z" fill="#2896F3"/>
<path d="M402.392 765.506C407.801 769.499 430.719 771.314 430.719 771.314C430.719 771.314 422.249 749.933 416.876 745.903C415.591 744.95 414.13 744.259 412.577 743.87C411.025 743.482 409.411 743.402 407.828 743.637C404.631 744.111 401.753 745.836 399.827 748.432C397.902 751.029 397.086 754.283 397.561 757.481C398.035 760.678 399.76 763.556 402.356 765.481L402.392 765.506Z" fill="#2896F3"/>
<path opacity="0.5" d="M449.934 598.768C449.934 605.495 437.761 624.988 437.761 624.988C437.761 624.988 425.588 605.52 425.588 598.768C425.588 597.169 425.903 595.585 426.515 594.107C427.127 592.63 428.025 591.287 429.155 590.156C430.286 589.025 431.629 588.128 433.107 587.516C434.584 586.904 436.168 586.589 437.767 586.589C439.366 586.589 440.95 586.904 442.428 587.516C443.905 588.128 445.248 589.025 446.379 590.156C447.51 591.287 448.407 592.63 449.019 594.107C449.631 595.585 449.946 597.169 449.946 598.768H449.934Z" fill="white"/>
<path opacity="0.5" d="M470.068 636.048C466.438 641.686 445.59 651.439 445.59 651.439C445.59 651.439 445.965 628.449 449.619 622.81C451.375 620.1 454.135 618.199 457.292 617.523C460.45 616.848 463.746 617.455 466.456 619.211C469.167 620.966 471.068 623.726 471.743 626.884C472.418 630.041 471.812 633.338 470.056 636.048H470.068Z" fill="white"/>
<path opacity="0.5" d="M469.185 699.694C463.135 702.719 440.29 700.625 440.29 700.625C440.29 700.625 452.221 680.975 458.222 677.95C461.111 676.496 464.458 676.249 467.528 677.264C470.598 678.278 473.14 680.471 474.594 683.359C476.047 686.247 476.294 689.594 475.28 692.665C474.266 695.735 472.073 698.276 469.185 699.73V699.694Z" fill="white"/>
<path opacity="0.5" d="M457.678 747.706C452.269 751.699 429.352 753.514 429.352 753.514C429.352 753.514 437.822 732.134 443.194 728.104C445.79 726.179 449.045 725.364 452.242 725.838C455.44 726.312 458.318 728.037 460.243 730.633C462.169 733.23 462.984 736.484 462.51 739.682C462.035 742.879 460.31 745.757 457.714 747.682L457.678 747.706Z" fill="white"/>
<path opacity="0.5" d="M419.998 652.746C424.838 657.428 447.296 662.281 447.296 662.281C447.296 662.281 441.778 639.908 436.938 635.273C434.602 633.129 431.522 631.981 428.352 632.073C425.183 632.165 422.174 633.491 419.967 635.767C417.76 638.044 416.528 641.092 416.534 644.263C416.54 647.434 417.782 650.477 419.998 652.746V652.746Z" fill="white"/>
<path opacity="0.5" d="M407.281 709.059C413.331 712.084 436.176 709.991 436.176 709.991C436.176 709.991 424.245 690.34 418.243 687.315C415.355 685.862 412.008 685.615 408.938 686.629C405.867 687.644 403.326 689.836 401.872 692.724C400.418 695.612 400.171 698.96 401.186 702.03C402.2 705.1 404.393 707.642 407.281 709.095V709.059Z" fill="white"/>
<path opacity="0.5" d="M402.392 765.506C407.801 769.499 430.719 771.314 430.719 771.314C430.719 771.314 422.249 749.933 416.876 745.903C415.591 744.95 414.13 744.259 412.577 743.87C411.025 743.482 409.411 743.402 407.828 743.637C404.631 744.111 401.753 745.836 399.827 748.432C397.902 751.029 397.086 754.283 397.561 757.481C398.035 760.678 399.76 763.556 402.356 765.481L402.392 765.506Z" fill="white"/>
<path d="M324.274 123.117V258.867L387.098 178.088" stroke="#535461" stroke-width="2" stroke-miterlimit="10"/>
<path d="M260.325 165.746L324.274 258.867" stroke="#535461" stroke-width="2" stroke-miterlimit="10"/>
<g opacity="0.7">
<path opacity="0.7" d="M439.83 107.157C439.825 99.1836 437.933 91.3242 434.31 84.2211C430.687 77.1179 425.435 70.9726 418.983 66.2871C412.531 61.6015 405.062 58.5086 397.186 57.261C389.31 56.0134 381.251 56.6464 373.667 59.1084C374.083 56.2675 374.298 53.4007 374.308 50.5295C374.299 37.4488 369.218 24.8812 360.133 15.4701C351.048 6.05902 338.667 0.537766 325.595 0.0675958C312.522 -0.402574 299.777 4.21498 290.039 12.9491C280.302 21.6832 274.33 33.8532 273.382 46.8995C265.795 44.4305 257.732 43.792 249.852 45.0363C241.971 46.2806 234.497 49.3723 228.04 54.0586C221.584 58.745 216.328 64.8929 212.703 71.9998C209.077 79.1066 207.186 86.9705 207.182 94.9486C207.182 120.359 225.853 156.356 250.198 162.708L253.985 164.874L251.928 171.917H264.101L261.487 164.886L265.25 162.733C284.054 157.796 299.481 135.145 305.519 113.413C308.826 115.616 312.467 117.271 316.301 118.314L320.088 120.48L318.031 127.522H330.204L327.554 120.467L331.317 118.314C334.119 117.563 336.817 116.47 339.351 115.059C342.606 139.44 359.921 169.194 381.81 174.942L385.598 177.107L383.541 184.15H395.713L393.063 177.095L396.827 174.942C421.208 168.565 439.83 132.507 439.83 107.157Z" fill="url(#paint0_linear)"/>
</g>
<path d="M266.024 169.364H254.251L256.308 162.297H263.374L266.024 169.364Z" fill="#2896F3"/>
<path d="M308.677 94.8517C308.677 121.859 286.788 161.402 259.781 161.402C232.773 161.402 210.884 121.835 210.884 94.8517C211.086 82.0185 216.326 69.7792 225.473 60.7753C234.619 51.7714 246.94 46.7249 259.775 46.7249C272.61 46.7249 284.93 51.7714 294.077 60.7753C303.223 69.7792 308.463 82.0185 308.665 94.8517H308.677Z" fill="#2896F3"/>
<path opacity="0.2" d="M308.677 94.8517C308.677 121.859 286.788 161.402 259.781 161.402C232.773 161.402 210.884 121.835 210.884 94.8517C211.086 82.0185 216.326 69.7792 225.473 60.7753C234.619 51.7714 246.94 46.7249 259.775 46.7249C272.61 46.7249 284.93 51.7714 294.077 60.7753C303.223 69.7792 308.463 82.0185 308.665 94.8517H308.677Z" fill="white"/>
<path d="M263.375 162.6H256.308L252.182 160.24H267.501L263.375 162.6Z" fill="#535461"/>
<path opacity="0.1" d="M242.127 56.8457C242.127 56.8457 221.557 68.0382 218.568 90.4232Z" fill="white"/>
<path d="M329.961 126.384H318.188L320.245 119.318H327.311L329.961 126.384Z" fill="#2896F3"/>
<path opacity="0.07" d="M329.961 126.384H318.188L320.245 119.318H327.311L329.961 126.384Z" fill="black"/>
<path d="M372.675 51.8484C372.675 78.8556 350.786 118.398 323.778 118.398C296.771 118.398 274.882 78.8314 274.882 51.8484C275.084 39.0152 280.323 26.7759 289.47 17.772C298.617 8.76807 310.937 3.72156 323.772 3.72156C336.607 3.72156 348.927 8.76807 358.074 17.772C367.221 26.7759 372.461 39.0152 372.662 51.8484H372.675Z" fill="#2896F3"/>
<path d="M327.312 119.608H320.245L316.119 117.261H331.438L327.312 119.608Z" fill="#535461"/>
<path opacity="0.1" d="M306.1 13.8666C306.1 13.8666 285.53 25.0591 282.541 47.444Z" fill="white"/>
<path d="M393.366 181.185H381.58L383.649 174.119H390.716L393.366 181.185Z" fill="#2896F3"/>
<path d="M436.067 106.661C436.067 133.669 414.178 173.211 387.17 173.211C360.163 173.211 338.274 133.644 338.274 106.661C338.476 93.8282 343.715 81.5889 352.862 72.585C362.009 63.5811 374.329 58.5345 387.164 58.5345C399.999 58.5345 412.319 63.5811 421.466 72.585C430.613 81.5889 435.853 93.8282 436.055 106.661H436.067Z" fill="#2896F3"/>
<path opacity="0.2" d="M436.067 106.661C436.067 133.669 414.178 173.211 387.17 173.211C360.163 173.211 338.274 133.644 338.274 106.661C338.476 93.8282 343.715 81.5889 352.862 72.585C362.009 63.5811 374.329 58.5345 387.164 58.5345C399.999 58.5345 412.319 63.5811 421.466 72.585C430.613 81.5889 435.853 93.8282 436.055 106.661H436.067Z" fill="white"/>
<path d="M390.716 174.421H383.65L379.523 172.062H394.842L390.716 174.421Z" fill="#535461"/>
<path opacity="0.1" d="M369.504 68.6675C369.504 68.6675 348.934 79.86 345.945 102.245Z" fill="white"/>
<path opacity="0.2" d="M405.042 115.785L388.223 126.058L371.392 115.785L388.223 86.9384L405.042 115.785ZM388.223 129.361L371.392 119.088L388.223 143.603L405.055 119.088L388.223 129.361Z" fill="black"/>
<path opacity="0.2" d="M341.081 57.4508L324.262 67.7237L307.467 57.4508L324.298 28.5802L341.081 57.4508ZM324.262 71.0269L307.467 60.742L324.298 85.2565L341.13 60.742L324.298 71.0148L324.262 71.0269Z" fill="black"/>
<path opacity="0.2" d="M274.894 104.568L258.075 114.841L241.244 104.568L258.075 75.6975L274.894 104.568ZM258.075 118.144L241.244 107.871L258.075 132.386L274.906 107.871L258.075 118.144Z" fill="black"/>
<path d="M285.106 450.64C278.161 462.389 279.419 483.866 289.063 523.143C289.063 523.143 300.086 553.066 278.04 578.258C255.993 603.45 251.274 625.448 251.274 625.448C251.274 625.448 182.062 668.331 173.326 687.642C186.321 658.905 143.656 700.045 193.013 712.048C222.137 719.138 228.442 708.902 243.397 727.003C258.353 745.105 292.209 742.733 313.469 740.386C334.729 738.039 370.944 712.834 370.944 712.834C370.944 712.834 330.796 543.568 339.484 527.027C347.676 511.382 377.139 481.652 319.422 443.15C307.891 435.527 292.136 438.745 285.106 450.64Z" fill="#F0898B"/>
<path opacity="0.1" d="M285.106 450.64C278.161 462.389 279.419 483.866 289.063 523.143C289.063 523.143 300.086 553.066 278.04 578.258C255.993 603.45 251.274 625.448 251.274 625.448C251.274 625.448 181.614 668.137 173.326 687.642C185.535 658.905 143.656 700.045 193.013 712.048C222.137 719.138 228.442 708.902 243.397 727.003C258.353 745.105 292.209 742.733 313.469 740.386C334.729 738.039 370.944 712.834 370.944 712.834C370.944 712.834 330.796 543.568 339.484 527.027C347.676 511.382 377.139 481.652 319.422 443.15C307.891 435.527 292.136 438.745 285.106 450.64Z" fill="black"/>
<path d="M263.907 719.961C263.907 719.961 253.671 765.627 240.288 771.919C226.905 778.211 204.859 811.28 202.499 823.089L182.425 865.996H200.575L263.907 793.977C263.907 793.977 288.749 784.297 293.831 764.054C294.617 760.908 315.877 705.792 315.877 705.792L263.907 719.961Z" fill="#FDB797"/>
<path d="M322.907 705.792C322.907 705.792 341.808 756.176 338.637 770.358C335.467 784.539 331.547 802.64 338.637 826.26L350.846 878.616L366.576 877.83L374.841 767.998C374.841 767.998 383.504 752.268 374.841 729.423C366.177 706.579 359.885 678.253 359.885 678.253L322.907 705.792Z" fill="#FDB797"/>
<path d="M326.827 448.341C326.827 448.341 331.546 400.316 342.557 371.179C342.557 371.179 345.703 357.01 342.557 335.75L337.838 275.916C337.838 275.916 338.625 248.364 321.31 248.364C303.995 248.364 322.096 279.074 322.096 279.074L320.523 357.022C320.523 357.022 310.287 436.543 303.208 445.207L326.827 448.341Z" fill="#FDB797"/>
<path opacity="0.05" d="M326.827 448.341C326.827 448.341 331.546 400.316 342.557 371.179C342.557 371.179 345.703 357.01 342.557 335.75L337.838 275.916C337.838 275.916 338.625 248.364 321.31 248.364C303.995 248.364 322.096 279.074 322.096 279.074L320.523 357.022C320.523 357.022 310.287 436.543 303.208 445.207L326.827 448.341Z" fill="black"/>
<path d="M322.907 391.652C322.907 391.652 319.761 429.441 329.211 442.037C329.211 442.037 307.165 430.227 288.276 440.464C288.276 440.464 300.086 408.181 296.153 394.012L322.907 391.652Z" fill="#FDB797"/>
<path opacity="0.1" d="M285.107 442.763C278.161 454.512 274.688 475.989 284.332 515.266C284.332 515.266 300.062 545.189 278.028 570.381C255.994 595.573 251.263 617.571 251.263 617.571C251.263 617.571 193.001 671.9 173.314 679.765C173.314 679.765 163.864 697.08 193.001 704.171C222.138 711.261 228.43 701.025 243.386 719.126C258.341 737.228 292.197 734.856 313.457 732.509C334.717 730.162 371.32 714.795 371.32 714.795C371.32 714.795 338.649 535.715 347.301 519.15C355.493 503.505 377.079 473.775 319.374 435.273C307.891 427.65 292.137 430.881 285.107 442.763Z" fill="black"/>
<path d="M285.107 441.19C278.161 452.939 274.688 474.416 284.332 513.693C284.332 513.693 300.062 543.616 278.028 568.808C255.994 594 251.263 615.998 251.263 615.998C251.263 615.998 193.001 670.327 173.314 678.192C173.314 678.192 163.864 695.507 193.001 702.598C222.138 709.688 228.43 699.452 243.386 717.553C258.341 735.655 292.197 733.283 313.457 730.936C334.717 728.589 371.32 713.222 371.32 713.222C371.32 713.222 338.649 534.142 347.301 517.577C355.493 501.932 377.079 472.202 319.374 433.7C307.891 426.077 292.137 429.295 285.107 441.19Z" fill="#F0898B"/>
<path d="M308.738 486.928C323.52 486.928 335.503 474.944 335.503 460.162C335.503 445.38 323.52 433.397 308.738 433.397C293.956 433.397 281.973 445.38 281.973 460.162C281.973 474.944 293.956 486.928 308.738 486.928Z" fill="#FDB797"/>
<path opacity="0.1" d="M299.288 471.173L293.782 553.841L311.932 642.025C311.932 642.025 295.404 700.287 311.932 694.769C328.461 689.251 329.248 641.239 329.248 641.239L318.188 549.158C318.188 549.158 331.571 479.873 329.211 465.668C326.852 451.463 299.288 471.173 299.288 471.173Z" fill="black"/>
<path d="M299.288 469.6L293.782 552.268L311.932 640.452C311.932 640.452 295.367 698.714 311.884 693.148C328.401 687.582 329.248 639.666 329.248 639.666L318.224 547.549C318.224 547.549 331.607 478.264 329.248 464.059C326.888 449.853 299.288 469.6 299.288 469.6Z" fill="#FDB797"/>
<path opacity="0.03" d="M295.742 417.268C306.887 417.268 317.026 414.086 322.363 405.168C322.435 398.211 322.859 393.213 322.859 393.213L296.093 395.633C297.787 401.683 296.856 406.91 294.883 415.707C295.452 415.695 295.246 417.268 295.742 417.268Z" fill="black"/>
<path d="M296.142 418.442C313.102 418.442 326.852 404.693 326.852 387.732C326.852 370.771 313.102 357.022 296.142 357.022C279.181 357.022 265.432 370.771 265.432 387.732C265.432 404.693 279.181 418.442 296.142 418.442Z" fill="#FDB797"/>
<path opacity="0.03" d="M329.598 506.215C329.598 506.215 332.018 518.025 347.313 519.21Z" fill="black"/>
<path opacity="0.03" d="M248.116 717.602C233.161 699.452 226.857 709.725 197.732 702.646C168.607 695.568 177.997 678.24 177.997 678.24C197.683 670.363 255.945 616.047 255.945 616.047C255.945 616.047 260.664 594 282.711 568.857C304.757 543.713 289.015 513.741 289.015 513.741C279.335 474.477 282.832 452.987 289.789 441.238C291.703 438.017 294.354 435.297 297.524 433.301C300.694 431.305 304.293 430.089 308.024 429.755C303.496 429.276 298.925 430.103 294.851 432.137C290.777 434.172 287.371 437.33 285.034 441.238C278.088 452.987 274.616 474.465 284.259 513.741C284.259 513.741 299.989 543.664 277.955 568.857C255.921 594.049 251.19 616.047 251.19 616.047C251.19 616.047 192.928 670.375 173.241 678.24C173.241 678.24 163.791 695.555 192.928 702.646C222.065 709.737 228.357 699.5 243.313 717.602C253.658 730.125 273.031 732.86 291.035 732.569C274.531 732.303 257.555 729.036 248.116 717.602Z" fill="black"/>
<path opacity="0.1" d="M307.286 423.318C306.293 421.116 304.176 419.688 302.579 417.861C297.388 411.968 298.283 403.135 297.981 395.282C297.674 387.781 295.997 380.4 293.032 373.502C294.889 372.581 296.579 371.354 298.029 369.872C300.54 367.195 302.248 363.868 302.961 360.267C303.673 356.667 303.36 352.939 302.058 349.508C298.365 351.801 294.112 353.032 289.765 353.065C285.796 353.065 281.888 352.11 277.919 351.855C271.213 351.384 264.515 352.877 258.643 356.151C257.821 356.066 256.998 355.969 256.223 355.836C240.723 353.489 229.954 373.224 214.442 381.307C203.552 386.982 199.159 400.219 197.502 412.367C195.844 424.516 195.59 437.439 189.274 447.954C184.942 455.141 175.25 459.291 173.435 467.483C169.889 483.455 173.822 479.51 177.754 500.77C179.061 507.8 180.743 510.607 182.401 517.553C184.192 525.055 182.207 532.883 181.941 540.543C181.082 565.856 201.713 590.092 226.844 593.274C226.135 602.499 222.346 611.218 216.087 618.031C226.493 621.443 238.001 617.499 247.172 611.509C262.029 601.685 272.873 586.862 277.737 569.728C283.92 547.778 279.661 524.45 278.681 501.665C277.701 478.881 281.295 453.544 298.622 438.745C303.45 434.583 309.887 429.138 307.286 423.318Z" fill="black"/>
<path d="M305.713 422.556C304.721 420.353 302.603 418.926 301.006 417.099C295.815 411.206 296.71 402.373 296.408 394.52C296.101 387.019 294.424 379.637 291.459 372.74C293.317 371.819 295.006 370.592 296.456 369.11C298.972 366.431 300.683 363.099 301.395 359.494C302.108 355.889 301.793 352.156 300.486 348.722C296.793 351.014 292.539 352.245 288.192 352.279C284.223 352.279 280.315 351.323 276.346 351.069C269.64 350.598 262.942 352.09 257.071 355.364C256.248 355.28 255.425 355.183 254.651 355.05C239.15 352.702 228.381 372.438 212.869 380.52C201.979 386.195 197.587 399.433 195.929 411.581C194.271 423.729 194.017 436.652 187.701 447.167C183.369 454.354 173.677 458.505 171.862 466.696C168.317 482.668 172.249 478.724 176.182 499.983C177.488 507.014 179.17 509.821 180.828 516.766C182.619 524.268 180.634 532.097 180.368 539.756C179.509 565.069 200.14 589.306 225.272 592.488C224.562 601.712 220.774 610.431 214.515 617.244C224.921 620.657 236.428 616.712 245.6 610.723C260.493 600.923 271.376 586.107 276.273 568.965C282.457 547.016 278.197 523.687 277.217 500.903C276.237 478.119 279.831 452.781 297.158 437.983C301.877 433.797 308.314 428.352 305.713 422.556Z" fill="#252223"/>
<path d="M200.479 866.008C200.479 866.008 204.411 876.245 212.288 879.391C212.288 879.391 231.975 884.11 219.379 888.841C210.909 891.999 192.384 885.67 180.949 881.121C179.871 880.675 178.916 879.977 178.166 879.084C177.415 878.191 176.89 877.131 176.636 875.993C176.382 874.854 176.406 873.671 176.706 872.544C177.006 871.417 177.573 870.379 178.36 869.517L182.365 865.222L200.479 866.008Z" fill="#333333"/>
<path d="M367.387 876.245C367.387 876.245 374.199 886.203 382.463 888.09C382.463 888.09 402.646 889.7 390.933 896.319C383.141 900.723 363.878 897.408 351.875 894.685C350.723 894.425 349.652 893.887 348.754 893.119C347.857 892.352 347.161 891.376 346.726 890.278C346.29 889.18 346.13 887.993 346.257 886.819C346.385 885.645 346.797 884.52 347.458 883.541L350.713 878.701L367.387 876.245Z" fill="#333333"/>
<path opacity="0.03" d="M249.29 615.708C249.29 615.708 267.44 625.944 287.865 625.158Z" fill="black"/>
<path opacity="0.3" d="M213.014 319.004H207.993L208.864 315.979H211.889L213.014 319.004Z" fill="#2896F3"/>
<path opacity="0.3" d="M231.237 287.193C231.237 298.688 221.895 315.628 210.376 315.628C198.857 315.628 189.516 298.688 189.516 287.23C189.516 281.697 191.713 276.391 195.626 272.479C199.538 268.567 204.844 266.369 210.376 266.369C215.909 266.369 221.215 268.567 225.127 272.479C229.039 276.391 231.237 281.697 231.237 287.23V287.193Z" fill="#2896F3"/>
<path d="M211.889 316.112H208.864L207.109 315.108H213.643L211.889 316.112Z" fill="#535461"/>
<path opacity="0.1" d="M202.826 270.991C202.826 270.991 194.029 275.771 192.771 285.318Z" fill="white"/>
<path opacity="0.2" d="M217.987 291.089L210.812 295.47L203.637 291.089L210.812 278.772L217.987 291.089ZM210.812 296.885L203.637 292.505L210.812 302.959L217.987 292.505L210.812 296.885Z" fill="black"/>
<path d="M210.897 315.543C209.567 317.011 208.582 318.756 208.012 320.653C207.443 322.549 207.304 324.549 207.605 326.506C208.706 333.088 214.188 339.671 213.087 347.342C211.986 355.014 208.694 359.442 208.694 362.697" stroke="#535461" stroke-width="0.75" stroke-miterlimit="10"/>
<path opacity="0.3" d="M755.291 385.058H750.257L751.141 382.033H754.154L755.291 385.058Z" fill="#2896F3"/>
<path opacity="0.3" d="M773.501 353.247C773.501 364.766 764.16 381.646 752.641 381.646C741.122 381.646 731.78 364.706 731.78 353.247C731.78 347.714 733.978 342.409 737.89 338.496C741.802 334.584 747.108 332.387 752.641 332.387C758.173 332.387 763.479 334.584 767.391 338.496C771.304 342.409 773.501 347.714 773.501 353.247V353.247Z" fill="#2896F3"/>
<path d="M754.154 382.166H751.141L749.386 381.162H755.92L754.154 382.166Z" fill="#535461"/>
<path opacity="0.1" d="M745.103 337.045C745.103 337.045 736.306 341.825 735.048 351.372Z" fill="white"/>
<path opacity="0.2" d="M760.264 357.143L753.089 361.523L745.914 357.143L753.089 344.825L760.264 357.143ZM753.089 362.939L745.914 358.559L753.089 369.013L760.264 358.559L753.089 362.939Z" fill="black"/>
<path d="M753.173 381.597C751.844 383.065 750.859 384.81 750.289 386.707C749.72 388.603 749.581 390.603 749.882 392.56C750.983 399.142 756.465 405.725 755.363 413.396C754.262 421.067 750.971 425.496 750.971 428.751" stroke="#535461" stroke-width="0.75" stroke-miterlimit="10"/>
<path opacity="0.3" d="M849.042 349.06L844.118 348.02L845.606 345.249L848.558 345.878L849.042 349.06Z" fill="#2896F3"/>
<path opacity="0.3" d="M873.448 321.678C871.028 332.955 858.432 347.536 847.155 345.152C835.878 342.768 830.215 324.316 832.635 313.051C833.855 307.715 837.123 303.073 841.734 300.125C846.345 297.176 851.93 296.158 857.285 297.29C862.64 298.422 867.336 301.613 870.359 306.175C873.383 310.738 874.492 316.305 873.448 321.678Z" fill="#2896F3"/>
<path d="M848.534 345.999L845.582 345.382L844.069 344.027L850.458 345.382L848.534 345.999Z" fill="#535461"/>
<path opacity="0.1" d="M849.018 299.983C849.018 299.983 839.423 302.838 836.216 311.913Z" fill="white"/>
<path opacity="0.2" d="M859.69 322.791L851.765 325.599L845.642 319.827L855.213 309.264L859.69 322.791ZM851.474 326.978L845.352 321.206L850.192 332.931L859.388 324.183L851.45 326.99L851.474 326.978Z" fill="black"/>
<path d="M847.687 345.237C846.082 346.397 844.756 347.9 843.806 349.638C842.855 351.375 842.305 353.303 842.194 355.28C841.903 361.947 845.908 369.521 843.246 376.806C840.584 384.09 836.458 387.696 835.781 390.914" stroke="#535461" stroke-width="0.75" stroke-miterlimit="10"/>
<defs>
<linearGradient id="paint0_linear" x1="323.512" y1="184.162" x2="323.512" y2="-2.73578e-05" gradientUnits="userSpaceOnUse">
<stop stop-color="#808080" stop-opacity="0.25"/>
<stop offset="0.54" stop-color="#808080" stop-opacity="0.12"/>
<stop offset="1" stop-color="#808080" stop-opacity="0.1"/>
</linearGradient>
</defs>
</svg>
