<?xml version="1.0" encoding="UTF-8"?>
<svg xmlns="http://www.w3.org/2000/svg" xmlns:xlink="http://www.w3.org/1999/xlink" width="2000pt" height="2000pt" viewBox="0 0 2000 2000" version="1.1">
<g id="surface1">
<path style=" stroke:none;fill-rule:nonzero;fill:rgb(96.862745%,57.647059%,10.196078%);fill-opacity:1;" d="M 1969.976562 1241.90625 C 1836.414062 1777.625 1293.820312 2103.65625 758.039062 1970.0625 C 222.476562 1836.5 -103.554688 1293.875 30.070312 758.1875 C 163.570312 222.40625 706.164062 -103.65625 1241.789062 29.90625 C 1777.539062 163.46875 2103.539062 706.15625 1969.976562 1241.90625 Z M 1969.976562 1241.90625 "/>
<path style=" stroke:none;fill-rule:nonzero;fill:rgb(100%,100%,100%);fill-opacity:1;" d="M 1440.914062 857.53125 C 1460.820312 724.46875 1359.507812 652.9375 1220.976562 605.21875 L 1265.914062 424.96875 L 1156.195312 397.625 L 1112.445312 573.125 C 1083.601562 565.9375 1053.976562 559.15625 1024.539062 552.4375 L 1068.601562 375.78125 L 958.945312 348.4375 L 913.976562 528.625 C 890.101562 523.1875 866.664062 517.8125 843.914062 512.15625 L 844.039062 511.59375 L 692.726562 473.8125 L 663.539062 591 C 663.539062 591 744.945312 609.65625 743.226562 610.8125 C 787.664062 621.90625 795.695312 651.3125 794.351562 674.625 L 743.164062 879.96875 C 746.226562 880.75 750.195312 881.875 754.570312 883.625 C 750.914062 882.71875 747.007812 881.71875 742.976562 880.75 L 671.226562 1168.40625 C 665.789062 1181.90625 652.007812 1202.15625 620.945312 1194.46875 C 622.039062 1196.0625 541.195312 1174.5625 541.195312 1174.5625 L 486.726562 1300.15625 L 629.507812 1335.75 C 656.070312 1342.40625 682.101562 1349.375 707.726562 1355.9375 L 662.320312 1538.25 L 771.914062 1565.59375 L 816.882812 1385.21875 C 846.820312 1393.34375 875.882812 1400.84375 904.320312 1407.90625 L 859.507812 1587.4375 L 969.226562 1614.78125 L 1014.632812 1432.8125 C 1201.726562 1468.21875 1342.414062 1453.9375 1401.632812 1284.71875 C 1449.351562 1148.46875 1399.257812 1069.875 1300.820312 1018.625 C 1372.507812 1002.09375 1426.507812 954.9375 1440.914062 857.53125 Z M 1190.226562 1209.0625 C 1156.320312 1345.3125 926.914062 1271.65625 852.539062 1253.1875 L 912.789062 1011.65625 C 987.164062 1030.21875 1225.664062 1066.96875 1190.226562 1209.0625 Z M 1224.164062 855.5625 C 1193.226562 979.5 1002.289062 916.53125 940.351562 901.09375 L 994.976562 682.03125 C 1056.914062 697.46875 1256.382812 726.28125 1224.164062 855.5625 Z M 1224.164062 855.5625 "/>
</g>
</svg>
