<svg width="255" height="50" viewBox="0 0 255 50" fill="none" xmlns="http://www.w3.org/2000/svg">
<path d="M15.5039 27.2812V39H13.1602V10.5625H22.1055C23.3555 10.5885 24.5208 10.7969 25.6016 11.1875C26.6953 11.5781 27.6458 12.138 28.4531 12.8672C29.2734 13.5833 29.918 14.4557 30.3867 15.4844C30.8555 16.513 31.0898 17.6784 31.0898 18.9805C31.0898 20.2826 30.8555 21.4479 30.3867 22.4766C29.918 23.4922 29.2734 24.3581 28.4531 25.0742C27.6458 25.7773 26.6953 26.3177 25.6016 26.6953C24.5078 27.0729 23.3424 27.2682 22.1055 27.2812H15.5039ZM15.5039 25.3086H22.1055C23.043 25.2956 23.9154 25.1393 24.7227 24.8398C25.5299 24.5404 26.2331 24.1237 26.832 23.5898C27.431 23.056 27.8997 22.4049 28.2383 21.6367C28.5898 20.8685 28.7656 19.9961 28.7656 19.0195C28.7656 18.043 28.5964 17.1576 28.2578 16.3633C27.9193 15.569 27.4505 14.8984 26.8516 14.3516C26.2526 13.7917 25.5495 13.362 24.7422 13.0625C23.9349 12.75 23.056 12.5807 22.1055 12.5547H15.5039V25.3086ZM51.2656 39C51.1224 38.5703 51.0117 38.0951 50.9336 37.5742C50.8555 37.0404 50.8034 36.5 50.7773 35.9531C50.3737 36.4479 49.9049 36.9036 49.3711 37.3203C48.8372 37.737 48.2513 38.1016 47.6133 38.4141C46.9883 38.7135 46.3112 38.9479 45.582 39.1172C44.8529 39.2995 44.0911 39.3906 43.2969 39.3906C42.3073 39.3906 41.3828 39.2474 40.5234 38.9609C39.6771 38.6745 38.9349 38.2708 38.2969 37.75C37.6719 37.2292 37.1771 36.6042 36.8125 35.875C36.4609 35.1328 36.2852 34.306 36.2852 33.3945C36.2852 32.1836 36.5521 31.1549 37.0859 30.3086C37.6198 29.4622 38.3424 28.7786 39.2539 28.2578C40.1654 27.724 41.2201 27.3333 42.418 27.0859C43.6159 26.8385 44.8724 26.7148 46.1875 26.7148H50.7578V24.3125C50.7448 23.5182 50.5885 22.8216 50.2891 22.2227C49.9896 21.6107 49.5794 21.1029 49.0586 20.6992C48.5508 20.2826 47.9388 19.9701 47.2227 19.7617C46.5195 19.5534 45.7513 19.4492 44.918 19.4492C44.1628 19.4492 43.4401 19.5469 42.75 19.7422C42.0729 19.9375 41.4674 20.2174 40.9336 20.582C40.4128 20.9466 39.9896 21.3958 39.6641 21.9297C39.3385 22.4505 39.1628 23.043 39.1367 23.707L36.793 23.6875C36.832 22.7891 37.0664 21.9622 37.4961 21.207C37.9388 20.4518 38.5312 19.8008 39.2734 19.2539C40.0156 18.694 40.875 18.2578 41.8516 17.9453C42.8411 17.6328 43.8958 17.4766 45.0156 17.4766C46.1354 17.4766 47.1836 17.6198 48.1602 17.9062C49.1497 18.1927 50.0026 18.6224 50.7188 19.1953C51.4479 19.7682 52.0208 20.4844 52.4375 21.3438C52.8672 22.2031 53.0885 23.2057 53.1016 24.3516V34.5859C53.1016 35.2891 53.1602 35.9987 53.2773 36.7148C53.4076 37.431 53.5638 38.1146 53.7461 38.7656L53.7656 39H51.2656ZM43.5508 37.3203C44.3711 37.3333 45.1523 37.2357 45.8945 37.0273C46.6497 36.819 47.3398 36.5326 47.9648 36.168C48.5898 35.7904 49.1432 35.3477 49.625 34.8398C50.1068 34.319 50.4844 33.7526 50.7578 33.1406V28.5117H46.5C45.4714 28.5117 44.4818 28.5898 43.5312 28.7461C42.5807 28.9023 41.7409 29.1628 41.0117 29.5273C40.2826 29.8789 39.6966 30.3542 39.2539 30.9531C38.8242 31.5521 38.6094 32.3008 38.6094 33.1992C38.6094 33.8372 38.7396 34.4102 39 34.918C39.2604 35.4258 39.612 35.862 40.0547 36.2266C40.4974 36.5781 41.0182 36.8516 41.6172 37.0469C42.2161 37.2292 42.8607 37.3203 43.5508 37.3203ZM77.8477 28.6484C77.8477 30.0156 77.6784 31.3503 77.3398 32.6523C77.0143 33.9414 76.5065 35.0872 75.8164 36.0898C75.1393 37.0794 74.2799 37.8802 73.2383 38.4922C72.1966 39.0911 70.9596 39.3906 69.5273 39.3906C68.2122 39.3906 67.0078 39.1367 65.9141 38.6289C64.8203 38.1211 63.9023 37.3854 63.1602 36.4219V47.125H60.8164V17.8672H63.0039L63.1016 20.7578C63.8438 19.7161 64.7552 18.9089 65.8359 18.3359C66.9167 17.763 68.1341 17.4766 69.4883 17.4766C70.9336 17.4766 72.1836 17.776 73.2383 18.375C74.293 18.9609 75.1589 19.7552 75.8359 20.7578C76.513 21.7474 77.0143 22.8932 77.3398 24.1953C77.6784 25.4844 77.8477 26.832 77.8477 28.2383V28.6484ZM75.5039 28.2383C75.5039 27.1836 75.3867 26.1354 75.1523 25.0938C74.918 24.0521 74.5404 23.1211 74.0195 22.3008C73.4987 21.4674 72.8216 20.7969 71.9883 20.2891C71.168 19.7682 70.1589 19.5078 68.9609 19.5078C68.2839 19.5078 67.6458 19.6055 67.0469 19.8008C66.4609 19.9831 65.9206 20.25 65.4258 20.6016C64.944 20.9401 64.5078 21.3503 64.1172 21.832C63.7396 22.3008 63.4206 22.8216 63.1602 23.3945V33.8633C63.707 34.957 64.4883 35.8229 65.5039 36.4609C66.5195 37.099 67.6849 37.418 69 37.418C70.1849 37.418 71.1875 37.1576 72.0078 36.6367C72.8411 36.1159 73.5117 35.4453 74.0195 34.625C74.5404 33.7917 74.918 32.8542 75.1523 31.8125C75.3867 30.7578 75.5039 29.7031 75.5039 28.6484V28.2383ZM93.8047 39.3906C92.3333 39.3906 90.9922 39.1172 89.7812 38.5703C88.5703 38.0234 87.5286 37.2812 86.6562 36.3438C85.7969 35.4062 85.1263 34.3125 84.6445 33.0625C84.1758 31.7995 83.9349 30.4583 83.9219 29.0391V28.1992C83.9349 26.6888 84.1823 25.2826 84.6641 23.9805C85.1589 22.6784 85.8294 21.5456 86.6758 20.582C87.5221 19.6185 88.5182 18.8633 89.6641 18.3164C90.8099 17.7565 92.0404 17.4766 93.3555 17.4766C94.7617 17.4766 96.0052 17.7305 97.0859 18.2383C98.1667 18.7461 99.0716 19.4427 99.8008 20.3281C100.543 21.2005 101.103 22.2227 101.48 23.3945C101.871 24.5664 102.073 25.8229 102.086 27.1641V28.5898H86.2656V29.0391C86.2786 30.1458 86.4674 31.207 86.832 32.2227C87.1966 33.2253 87.7109 34.1107 88.375 34.8789C89.0391 35.6471 89.8398 36.2656 90.7773 36.7344C91.7148 37.1901 92.7565 37.418 93.9023 37.418C95.2044 37.431 96.3828 37.1901 97.4375 36.6953C98.4922 36.2005 99.3906 35.4844 100.133 34.5469L101.617 35.6602C101.227 36.207 100.764 36.7148 100.23 37.1836C99.6966 37.6393 99.0977 38.0299 98.4336 38.3555C97.7826 38.681 97.0664 38.9349 96.2852 39.1172C95.5039 39.2995 94.6771 39.3906 93.8047 39.3906ZM93.3555 19.4688C92.4049 19.4688 91.5326 19.651 90.7383 20.0156C89.944 20.3672 89.2474 20.862 88.6484 21.5C88.0495 22.138 87.5547 22.8932 87.1641 23.7656C86.7734 24.625 86.5065 25.569 86.3633 26.5977H99.7422V26.3438C99.7161 25.4714 99.5534 24.625 99.2539 23.8047C98.9674 22.9714 98.5508 22.2357 98.0039 21.5977C97.4701 20.9596 96.8125 20.4453 96.0312 20.0547C95.25 19.6641 94.3581 19.4688 93.3555 19.4688ZM122.789 17.4766C123.375 17.4766 123.961 17.5156 124.547 17.5938C125.133 17.6589 125.621 17.7565 126.012 17.8867L125.719 20.1328C125.172 20.0156 124.625 19.9245 124.078 19.8594C123.531 19.7943 122.971 19.7617 122.398 19.7617C120.419 19.7617 118.74 20.2305 117.359 21.168C115.979 22.1055 115.009 23.5443 114.449 25.4844L114.469 39H112.047V17.8672H114.293L114.449 21.5391V21.9688C115.309 20.5755 116.448 19.4818 117.867 18.6875C119.286 17.8802 120.927 17.4766 122.789 17.4766Z" fill="white"/>
<g clip-path="url(#clip0)">
<path fill-rule="evenodd" clip-rule="evenodd" d="M169.803 16.2709C166.957 11.2206 161.758 8.13319 155.813 8.13319C146.815 8.13319 139.798 15.4409 139.798 24.9996C139.798 34.5584 146.815 42.6014 155.813 42.6014C161.758 42.6014 166.957 38.9258 169.803 33.8755H177.96C174.589 43.3005 165.869 49.9996 155.813 49.9996C142.815 49.9996 132 38.8068 132 24.9996C132 11.1925 142.815 -0.000366211 155.813 -0.000366211C165.869 -0.000366211 174.589 6.84583 177.96 16.2709H169.803V16.2709ZM182 22.0585L173.782 28.235H163.473C162.272 31.5043 159.267 33.8232 155.746 33.8232C151.169 33.8232 147.459 29.9057 147.459 25.0732C147.459 20.2407 151.169 16.3232 155.746 16.3232C159.319 16.3232 162.364 18.7114 163.528 22.0585H182Z" fill="#2896F3"/>
</g>
<path d="M184.023 28.1211C184.036 26.6888 184.258 25.3281 184.688 24.0391C185.117 22.75 185.729 21.6237 186.523 20.6602C187.331 19.6836 188.314 18.9089 189.473 18.3359C190.645 17.763 191.966 17.4766 193.438 17.4766C194.922 17.4766 196.243 17.763 197.402 18.3359C198.574 18.9089 199.564 19.6836 200.371 20.6602C201.178 21.6237 201.797 22.75 202.227 24.0391C202.656 25.3281 202.878 26.6888 202.891 28.1211V28.7656C202.878 30.1979 202.656 31.5586 202.227 32.8477C201.81 34.1367 201.198 35.2695 200.391 36.2461C199.583 37.2096 198.6 37.9779 197.441 38.5508C196.283 39.1107 194.961 39.3906 193.477 39.3906C191.992 39.3906 190.664 39.1107 189.492 38.5508C188.333 37.9779 187.35 37.2096 186.543 36.2461C185.736 35.2695 185.117 34.1367 184.688 32.8477C184.258 31.5586 184.036 30.1979 184.023 28.7656V28.1211ZM186.367 28.7656C186.367 29.8854 186.523 30.9661 186.836 32.0078C187.148 33.0495 187.604 33.974 188.203 34.7812C188.802 35.5755 189.538 36.2135 190.41 36.6953C191.296 37.1771 192.318 37.418 193.477 37.418C194.622 37.418 195.632 37.1771 196.504 36.6953C197.389 36.2135 198.125 35.5755 198.711 34.7812C199.31 33.974 199.766 33.0495 200.078 32.0078C200.391 30.9661 200.547 29.8854 200.547 28.7656V28.1211C200.547 27.0143 200.391 25.9401 200.078 24.8984C199.766 23.8568 199.31 22.9388 198.711 22.1445C198.112 21.3372 197.37 20.6927 196.484 20.2109C195.599 19.7161 194.583 19.4688 193.438 19.4688C192.292 19.4688 191.276 19.7161 190.391 20.2109C189.518 20.6927 188.783 21.3372 188.184 22.1445C187.598 22.9388 187.148 23.8568 186.836 24.8984C186.523 25.9401 186.367 27.0143 186.367 28.1211V28.7656ZM209.805 17.8672H219.609V36.9297H226.797V39H209.805V36.9297H217.266V19.957H209.805V17.8672ZM216.582 12.0859C216.582 11.6042 216.719 11.1875 216.992 10.8359C217.266 10.4844 217.721 10.3086 218.359 10.3086C218.984 10.3086 219.434 10.4844 219.707 10.8359C219.993 11.1875 220.137 11.6042 220.137 12.0859C220.137 12.5417 219.993 12.9453 219.707 13.2969C219.434 13.6354 218.984 13.8047 218.359 13.8047C217.721 13.8047 217.266 13.6354 216.992 13.2969C216.719 12.9453 216.582 12.5417 216.582 12.0859ZM235.43 17.8672L235.605 21.832C236.348 20.5169 237.337 19.4688 238.574 18.6875C239.811 17.8932 241.217 17.4896 242.793 17.4766C245.111 17.4766 246.882 18.1732 248.105 19.5664C249.329 20.9466 249.948 22.9128 249.961 25.4648V39H247.617V25.5039C247.604 23.5638 247.161 22.0794 246.289 21.0508C245.417 20.0091 244.062 19.4948 242.227 19.5078C241.471 19.5078 240.749 19.6315 240.059 19.8789C239.382 20.1263 238.757 20.4648 238.184 20.8945C237.624 21.3242 237.122 21.832 236.68 22.418C236.25 23.0039 235.898 23.6419 235.625 24.332V39H233.281V17.8672H235.43Z" fill="white"/>
<defs>
<clipPath id="clip0">
<rect x="132" width="50" height="50" fill="white"/>
</clipPath>
</defs>
</svg>