<svg width="1920" height="1080" viewBox="0 0 1920 1080" fill="none" xmlns="http://www.w3.org/2000/svg">
<g clip-path="url(#clip0)">
<path d="M-1.70063 -180V-85.6439C-1.70063 9.42166 -1.70074 196.006 200.849 387.556C407.202 576.977 806.596 763.561 911.199 955.111C1015.8 1144.53 806.596 1331.12 606.899 1522.67C407.202 1712.09 197.996 1898.67 505.149 2090.22C806.596 2279.64 1624.4 2466.23 1976.25 2657.78C2328.1 2847.2 2233 3033.78 1874.5 3225.33C1519.8 3414.75 911.199 3601.34 809.449 3792.89C711.502 3982.31 1110.9 4168.89 1063.35 4360.44C1015.8 4549.87 502.296 4736.45 404.35 4928C302.599 5117.42 606.899 5304.01 1063.35 5495.56C1519.8 5684.98 2128.4 5871.56 2280.55 6063.11C2432.7 6252.53 2128.4 6439.12 2026.65 6630.67C1928.7 6820.09 2023.8 7006.67 2178.8 7198.22C2328.1 7387.64 2537.3 7574.23 2330.95 7765.78C2128.4 7955.2 1519.8 8141.78 1317.25 8333.33C1110.9 8522.75 1320.1 8709.34 1621.55 8900.89C1928.7 9090.31 2328.1 9276.89 2026.65 9468.44C1719.5 9657.87 711.502 9844.45 200.849 9943.77L-306.001 10036V9941.64C-306.001 9846.58 -306.001 9659.99 -306.001 9468.44C-306.001 9279.02 -306.001 9092.44 -306.001 8900.89C-306.001 8711.47 -306.001 8524.88 -306.001 8333.33C-306.001 8143.91 -306.001 7957.33 -306.001 7765.78C-306.001 7576.36 -306.001 7389.77 -306.001 7198.22C-306.001 7008.8 -306.001 6822.22 -306.001 6630.67C-306.001 6441.24 -306.001 6254.66 -306.001 6063.11C-306.001 5873.69 -306.001 5687.11 -306.001 5495.56C-306.001 5306.13 -306.001 5119.55 -306.001 4928C-306.001 4738.58 -306.001 4551.99 -306.001 4360.44C-306.001 4171.02 -306.001 3984.44 -306.001 3792.89C-306.001 3603.47 -306.001 3416.88 -306.001 3225.33C-306.001 3035.91 -306.001 2849.33 -306.001 2657.78C-306.001 2468.36 -306.001 2281.77 -306.001 2090.22C-306.001 1900.8 -306.001 1714.22 -306.001 1522.67C-306.001 1333.24 -306.001 1146.66 -306.001 955.111C-306.001 765.689 -306.001 579.106 -306.001 387.556C-306.001 198.134 -306.001 11.55 -306.001 -87.7722V-180L-1.70063 -180Z" fill="#1B71CA"/>
</g>
<defs>
<clipPath id="clip0">
<rect x="2737" y="-180" width="10216" height="3043" transform="rotate(90 2737 -180)" fill="white"/>
</clipPath>
</defs>
</svg>
